<svg width="91" height="90" viewBox="0 0 91 90" fill="none" xmlns="http://www.w3.org/2000/svg">
<rect width="91" height="90" rx="20" fill="#F7EEE7"/>
<g clip-path="url(#clip0_126_309)">
<path d="M63.9827 52.917C63.9773 52.8897 63.9702 52.8636 63.9613 52.8369C63.9524 52.8125 63.9447 52.79 63.9334 52.7668C63.9221 52.7455 63.9091 52.7259 63.896 52.7051C63.8865 52.6914 63.8847 52.6754 63.8746 52.6623C63.8669 52.6522 63.8556 52.6487 63.8479 52.6392C63.8301 52.619 63.8117 52.6018 63.7915 52.584C63.7832 52.5762 63.779 52.5667 63.7707 52.5596L59.1822 48.9906C59.2232 48.55 59.2499 48.1053 59.2499 47.6635C59.2499 42.074 55.9979 37.0408 50.9398 34.7174V31.0362C50.9398 31.0237 50.9332 31.0136 50.9326 31.0011C50.9309 30.975 50.9273 30.9507 50.9226 30.9251C50.9172 30.8978 50.9101 30.8723 50.9012 30.8456C50.8929 30.8212 50.8851 30.7987 50.8733 30.7761C50.8626 30.7541 50.8489 30.7345 50.8359 30.7144C50.8264 30.7007 50.8246 30.6847 50.8145 30.6716C50.8068 30.6615 50.7955 30.658 50.7872 30.6485C50.77 30.6283 50.7516 30.611 50.7314 30.5932C50.7231 30.5855 50.7189 30.576 50.7106 30.5689L45.3645 26.4115C45.352 26.402 45.3371 26.3996 45.3247 26.3919C45.2902 26.3687 45.2546 26.3527 45.2166 26.3372C45.181 26.3236 45.1483 26.3099 45.1115 26.3028C45.0747 26.2963 45.0379 26.2957 44.9999 26.2957C44.9625 26.2957 44.9257 26.2963 44.8883 26.3034C44.8515 26.3105 44.8188 26.3242 44.7832 26.3384C44.7458 26.3533 44.7101 26.3693 44.6757 26.3919C44.6626 26.4008 44.6472 26.4025 44.6353 26.412L39.2892 30.5695C39.2791 30.5772 39.2756 30.5885 39.2661 30.5968C39.2476 30.6128 39.2304 30.6295 39.2144 30.6473C39.2055 30.6574 39.1936 30.6615 39.1853 30.6722C39.1746 30.6853 39.1728 30.7013 39.1639 30.715C39.1503 30.7363 39.136 30.7565 39.1253 30.7791C39.1146 30.8005 39.1075 30.8218 39.0992 30.845C39.0897 30.8717 39.0826 30.8978 39.0772 30.9257C39.0725 30.9513 39.0689 30.9762 39.0671 31.0023C39.0666 31.0148 39.06 31.0249 39.06 31.038V34.718C34.0019 37.0402 30.7499 42.0734 30.7499 47.6635C30.7499 48.1077 30.7766 48.5518 30.817 48.9906L26.2297 52.5584C26.2196 52.5661 26.216 52.5774 26.2065 52.5857C26.1881 52.6018 26.1709 52.6184 26.1543 52.6368C26.146 52.6463 26.1341 52.6505 26.1258 52.6611C26.1157 52.6742 26.1133 52.6902 26.1044 52.7033C26.0907 52.7253 26.0765 52.7449 26.0658 52.768C26.0551 52.79 26.048 52.8114 26.0397 52.8345C26.0302 52.8612 26.0236 52.8862 26.0183 52.9135C26.013 52.9396 26.0094 52.9645 26.0076 52.9913C26.007 53.0037 26.0005 53.0138 26.0005 53.0269V58.962C26.0005 58.9745 26.007 58.9852 26.0076 58.9976C26.0106 59.0392 26.0207 59.0778 26.032 59.1182C26.0421 59.1538 26.0498 59.1882 26.0658 59.2209C26.0818 59.2535 26.1038 59.2809 26.1264 59.31C26.1513 59.3438 26.1756 59.3759 26.2071 59.4032C26.2166 59.4115 26.2202 59.4228 26.2303 59.4305L31.5764 63.5879C31.5996 63.6063 31.6269 63.6146 31.6524 63.6283C31.6678 63.6378 31.6809 63.6503 31.6969 63.6574C31.7076 63.6627 31.7183 63.6663 31.7296 63.6699C31.7985 63.6966 31.8691 63.7126 31.9404 63.7126H31.941C31.941 63.7126 31.941 63.7126 31.9416 63.7126C32.0128 63.7126 32.0835 63.6966 32.1523 63.6699C32.1636 63.6657 32.1743 63.6621 32.185 63.6574C32.201 63.6503 32.2141 63.6378 32.2295 63.6283C32.2551 63.6146 32.2824 63.6063 32.3055 63.5879L37.3429 59.6704C39.6318 61.1334 42.2657 61.913 44.9999 61.913C47.7335 61.913 50.3686 61.1334 52.6569 59.6698L57.6949 63.5879C57.718 63.6063 57.7453 63.6146 57.7709 63.6283C57.7863 63.6378 57.7994 63.6503 57.8154 63.6574C57.8261 63.6627 57.8368 63.6663 57.8481 63.6699C57.9169 63.6966 57.9876 63.7126 58.0588 63.7126H58.0594C58.0594 63.7126 58.0594 63.7126 58.06 63.7126C58.1313 63.7126 58.2019 63.6966 58.2708 63.6699C58.2821 63.6657 58.2928 63.6621 58.3035 63.6574C58.3195 63.6503 58.3326 63.6378 58.348 63.6283C58.3735 63.6146 58.4008 63.6063 58.424 63.5879L63.7701 59.4305C63.7802 59.4228 63.7838 59.4115 63.7933 59.4032C63.8247 59.3759 63.8491 59.3432 63.874 59.31C63.896 59.2803 63.9186 59.253 63.9346 59.2209C63.9506 59.1888 63.9583 59.1538 63.9684 59.1182C63.9797 59.0778 63.9898 59.0392 63.9928 58.9976C63.9934 58.9852 63.9999 58.9751 63.9999 58.962V53.0275C63.9999 53.015 63.9934 53.0043 63.9928 52.9913C63.9904 52.9657 63.9874 52.942 63.9827 52.917ZM58.0594 49.6217L62.4377 53.0275L58.0594 56.432L53.6811 53.0263L58.0594 49.6217ZM53.3071 54.2405L57.4657 57.4753V61.9064L53.3071 58.6723V54.2405ZM58.6532 57.4753L62.8118 54.2411V58.6723L58.6532 61.9064V57.4753ZM44.9999 27.6322L49.3782 31.0368L44.9999 34.4419L40.6216 31.0374L44.9999 27.6322ZM40.2475 35.0933C40.2475 35.0927 40.2475 35.0915 40.2475 35.0909V32.2498L44.4061 35.4845V39.9163L40.2475 36.6815V35.0933ZM45.5936 35.4845L49.7523 32.2504V35.0772V35.1075V36.6827L45.5936 39.9163V35.4845ZM36.3187 53.0281L31.9404 56.4326L27.5621 53.0269L31.9404 49.6223L36.3187 53.0281ZM27.188 54.2405L31.3466 57.4753V61.9064L27.188 58.6723V54.2405ZM32.5341 57.4753L36.6927 54.2411V58.6723L32.5341 61.9064V57.4753ZM37.8802 58.607V53.0275C37.8802 53.015 37.8737 53.0043 37.8731 52.9913C37.8713 52.9657 37.8678 52.942 37.863 52.917C37.8577 52.8897 37.8506 52.8636 37.8416 52.8369C37.8327 52.8125 37.825 52.79 37.8137 52.7668C37.8025 52.7455 37.7894 52.7259 37.7763 52.7051C37.7668 52.6914 37.7651 52.6754 37.755 52.6623C37.7472 52.6522 37.736 52.6487 37.7276 52.6392C37.7104 52.619 37.692 52.6018 37.6718 52.584C37.6635 52.5762 37.6594 52.5667 37.6511 52.5596L32.3049 48.401C32.2925 48.3909 32.277 48.3891 32.2646 48.3808C32.2307 48.3582 32.1963 48.3434 32.1589 48.328C32.1226 48.3137 32.0888 48.3 32.0514 48.2923C32.0193 48.2864 31.9885 48.2846 31.9552 48.284C31.9457 48.078 31.9374 47.8708 31.9374 47.6635C31.9374 42.723 34.7055 38.2508 39.06 36.0284V36.9713C39.06 36.9838 39.0666 36.9945 39.0677 37.0075C39.0701 37.0485 39.0802 37.0865 39.0915 37.1263C39.1016 37.1625 39.1093 37.1975 39.1259 37.2302C39.1414 37.2628 39.1633 37.2901 39.1859 37.3192C39.2108 37.3531 39.2352 37.3851 39.2666 37.4125C39.2761 37.4208 39.2797 37.432 39.2898 37.4398L44.6359 41.5984C44.6597 41.6168 44.6864 41.6251 44.7119 41.6388C44.7274 41.6483 44.7404 41.6607 44.7565 41.6679C44.7671 41.6732 44.7778 41.6768 44.7891 41.6803C44.858 41.707 44.9286 41.7231 44.9999 41.7231H45.0005H45.0011C45.0723 41.7231 45.143 41.707 45.2119 41.6803C45.2231 41.6762 45.2338 41.6726 45.2445 41.6679C45.2606 41.6607 45.2736 41.6483 45.2891 41.6388C45.3146 41.6251 45.3413 41.6168 45.3651 41.5984L50.7112 37.441C50.7213 37.4332 50.7248 37.422 50.7343 37.4136C50.7658 37.3863 50.7901 37.3537 50.8151 37.3204C50.8371 37.2907 50.859 37.2634 50.8756 37.2314C50.8911 37.1987 50.8994 37.1643 50.9095 37.1286C50.9208 37.0883 50.9309 37.0497 50.9338 37.0081C50.9344 36.9956 50.941 36.9855 50.941 36.9725V36.0284C55.2949 38.252 58.0624 42.723 58.0624 47.6635C58.0624 47.8702 58.0541 48.0774 58.0446 48.2846C58.0113 48.2852 57.9811 48.287 57.949 48.2929C57.9116 48.3006 57.8771 48.3137 57.8409 48.3285C57.8041 48.3434 57.7697 48.3588 57.7364 48.3808C57.7234 48.3897 57.7073 48.3921 57.6949 48.4016L52.3487 52.559C52.3386 52.5667 52.3351 52.578 52.3256 52.5863C52.3072 52.6024 52.29 52.619 52.2733 52.6374C52.265 52.6469 52.2531 52.651 52.2448 52.6617C52.2347 52.6748 52.2324 52.6908 52.2235 52.7039C52.2098 52.7259 52.1956 52.7455 52.1849 52.7686C52.1742 52.7906 52.1671 52.812 52.1587 52.8351C52.1492 52.8618 52.1427 52.8868 52.1374 52.9141C52.132 52.9402 52.1285 52.9651 52.1267 52.9919C52.1261 53.0043 52.1196 53.0144 52.1196 53.0275V58.6064C49.9999 59.9898 47.5465 60.726 44.9999 60.726C42.4533 60.726 40.0011 59.9898 37.8802 58.607Z" fill="#924705"/>
</g>
<defs>
<clipPath id="clip0_126_309">
<rect width="38" height="38" fill="white" transform="translate(26 26)"/>
</clipPath>
</defs>
</svg>
