<svg width="91" height="90" viewBox="0 0 91 90" fill="none" xmlns="http://www.w3.org/2000/svg">
<rect width="91" height="90" rx="20" fill="#F1F1F1"/>
<g clip-path="url(#clip0_126_310)">
<path d="M56.912 43.999H60.0627C60.1887 44.4684 60.4811 44.8761 60.8854 45.146C61.2896 45.4159 61.7782 45.5297 62.2601 45.4661C62.742 45.4026 63.1844 45.166 63.5049 44.8005C63.8253 44.435 64.002 43.9655 64.002 43.4794C64.002 42.9934 63.8253 42.5238 63.5049 42.1583C63.1844 41.7928 62.742 41.5563 62.2601 41.4927C61.7782 41.4292 61.2896 41.543 60.8854 41.8129C60.4811 42.0828 60.1887 42.4904 60.0627 42.9599H56.912V40.4436H59.2499C59.3325 40.4436 59.4139 40.4239 59.4873 40.3862C59.5608 40.3484 59.6242 40.2937 59.6723 40.2266L61.2933 37.9623C61.748 38.1322 62.2491 38.1309 62.703 37.9589C63.1569 37.7868 63.5329 37.4556 63.7608 37.027C63.9887 36.5983 64.0531 36.1015 63.9419 35.6289C63.8307 35.1563 63.5516 34.7403 63.1564 34.4582C62.7613 34.1762 62.2771 34.0473 61.7941 34.0957C61.311 34.1441 60.862 34.3664 60.5307 34.7212C60.1994 35.076 60.0083 35.5392 59.993 36.0244C59.9777 36.5096 60.1394 36.9838 60.4478 37.3588L58.9827 39.4045H56.9117V37.4781C56.9117 37.3403 56.8569 37.2082 56.7595 37.1107C56.6621 37.0133 56.5299 36.9586 56.3922 36.9586C55.5886 36.9584 54.8056 36.7045 54.1549 36.233L57.0212 32.7002C57.4668 32.9001 57.9698 32.9311 58.4365 32.7875C58.9032 32.6439 59.3018 32.3355 59.5579 31.9198C59.8141 31.5041 59.9103 31.0094 59.8287 30.528C59.7471 30.0465 59.4932 29.6112 59.1144 29.3031C58.7356 28.995 58.2576 28.8352 57.7697 28.8534C57.2817 28.8717 56.817 29.0667 56.4622 29.4022C56.1074 29.7377 55.8868 30.1908 55.8413 30.677C55.7959 31.1631 55.9288 31.6493 56.2152 32.0447L53.3982 35.5181C52.8512 34.839 52.553 33.9932 52.5533 33.1212C52.5532 32.9834 52.4984 32.8513 52.401 32.7539C52.3036 32.6565 52.1715 32.6017 52.0337 32.6016H37.9657C37.828 32.6017 37.6959 32.6565 37.5984 32.7539C37.501 32.8513 37.4463 32.9834 37.4462 33.1212C37.4464 33.9932 37.1483 34.839 36.6013 35.5181L33.7842 32.0444C34.0695 31.65 34.2017 31.1653 34.1561 30.6806C34.1105 30.1959 33.8903 29.7444 33.5365 29.41C33.1827 29.0757 32.7194 28.8814 32.2329 28.8633C31.7464 28.8452 31.27 29.0046 30.8923 29.3117C30.5146 29.6189 30.2615 30.0528 30.18 30.5328C30.0986 31.0127 30.1944 31.5059 30.4496 31.9204C30.7048 32.335 31.102 32.6426 31.5672 32.786C32.0324 32.9294 32.5339 32.8988 32.9782 32.6999L35.8445 36.2327C35.1938 36.7042 34.4109 36.9581 33.6073 36.9583C33.4695 36.9583 33.3374 37.013 33.2399 37.1105C33.1425 37.2079 33.0878 37.34 33.0878 37.4778V39.4042H31.0171L29.5523 37.3585C29.8652 36.9801 30.0299 36.5009 30.0154 36.0101C30.001 35.5193 29.8086 35.0506 29.4739 34.6913C29.1393 34.3319 28.6854 34.1066 28.1969 34.0574C27.7084 34.0081 27.2187 34.1382 26.819 34.4235C26.4194 34.7088 26.1372 35.1297 26.0251 35.6077C25.913 36.0857 25.9786 36.5882 26.2097 37.0214C26.4408 37.4546 26.8216 37.7889 27.2811 37.962C27.7406 38.1351 28.2473 38.1351 28.7068 37.962L30.3277 40.2263C30.3758 40.2934 30.4391 40.3482 30.5125 40.386C30.5859 40.4237 30.6673 40.4435 30.7499 40.4436H33.0878V42.9599H29.937C29.811 42.4904 29.5186 42.0828 29.1144 41.8129C28.7101 41.543 28.2215 41.4292 27.7396 41.4927C27.2577 41.5563 26.8153 41.7928 26.4949 42.1583C26.1744 42.5238 25.9977 42.9934 25.9977 43.4794C25.9977 43.9655 26.1744 44.435 26.4949 44.8005C26.8153 45.166 27.2577 45.4026 27.7396 45.4661C28.2215 45.5297 28.7101 45.4159 29.1144 45.146C29.5186 44.8761 29.811 44.4684 29.937 43.999H33.0878V46.9276C33.0878 47.058 33.0952 47.1871 33.0996 47.3168H30.5272C30.4309 47.3169 30.3364 47.3437 30.2545 47.3943C30.1725 47.4449 30.1062 47.5172 30.0629 47.6033L28.4075 50.9019C27.9287 50.801 27.4296 50.8776 27.0031 51.1176C26.5767 51.3575 26.252 51.7444 26.0897 52.206C25.9275 52.6676 25.9386 53.1725 26.1211 53.6265C26.3036 54.0805 26.645 54.4527 27.0816 54.6736C27.5182 54.8945 28.0203 54.9491 28.4941 54.8271C28.968 54.7052 29.3814 54.415 29.6571 54.0108C29.9329 53.6066 30.0522 53.1159 29.9929 52.6302C29.9336 52.1445 29.6996 51.6969 29.3347 51.371L30.8478 48.3547H33.1843C33.4955 50.7145 34.5731 52.9068 36.2513 54.5947L32.8829 57.4768C32.4799 57.199 31.9895 57.0772 31.5033 57.1342C31.0171 57.1913 30.5682 57.4232 30.2403 57.7867C29.9125 58.1503 29.7281 58.6207 29.7214 59.1102C29.7148 59.5997 29.8864 60.0749 30.2043 60.4472C30.5222 60.8195 30.9647 61.0635 31.4492 61.1336C31.9337 61.2038 32.4272 61.0953 32.8376 60.8285C33.248 60.5616 33.5474 60.1546 33.6799 59.6834C33.8124 59.2121 33.769 58.7087 33.5577 58.2671L37.0273 55.2983C37.2862 55.513 37.5528 55.7202 37.8336 55.9117L44.7072 60.6023C44.7936 60.6606 44.8956 60.6918 44.9999 60.6918C45.1042 60.6918 45.2061 60.6606 45.2926 60.6023L52.1661 55.9117C52.447 55.7202 52.7136 55.513 52.9725 55.2983L56.442 58.2671C56.2331 58.7058 56.1908 59.2055 56.323 59.6731C56.4551 60.1407 56.7527 60.5444 57.1604 60.8088C57.568 61.0733 58.0579 61.1806 58.5388 61.1108C59.0196 61.0409 59.4587 60.7987 59.7743 60.4291C60.0898 60.0596 60.2603 59.588 60.2539 59.1021C60.2476 58.6162 60.0648 58.1492 59.7397 57.788C59.4147 57.4269 58.9694 57.1962 58.4868 57.1389C58.0043 57.0817 57.5174 57.2017 57.1168 57.4768L53.7485 54.5947C55.4267 52.9068 56.5042 50.7145 56.8155 48.3547H59.1516L60.6657 51.3698C60.3082 51.6917 60.0799 52.1325 60.0231 52.6102C59.9662 53.0878 60.0848 53.5699 60.3567 53.9667C60.6287 54.3635 61.0354 54.6481 61.5014 54.7674C61.9674 54.8868 62.4609 54.8329 62.8901 54.6158C63.3194 54.3986 63.6551 54.033 63.835 53.5868C64.0149 53.1407 64.0266 52.6444 63.868 52.1903C63.7094 51.7361 63.3913 51.355 62.9728 51.1178C62.5543 50.8806 62.0639 50.8035 61.5928 50.9007L59.9374 47.6021C59.8942 47.5161 59.8279 47.4437 59.7459 47.3931C59.6639 47.3425 59.5695 47.3157 59.4731 47.3157H56.9007C56.9051 47.1859 56.9126 47.0568 56.9126 46.9265L56.912 43.999ZM61.996 42.5146C62.1868 42.5146 62.3733 42.5712 62.532 42.6772C62.6907 42.7832 62.8143 42.9339 62.8874 43.1102C62.9604 43.2865 62.9795 43.4805 62.9423 43.6677C62.905 43.8548 62.8131 44.0268 62.6782 44.1617C62.5433 44.2966 62.3714 44.3885 62.1842 44.4257C61.997 44.463 61.803 44.4439 61.6267 44.3708C61.4504 44.2978 61.2997 44.1741 61.1937 44.0155C61.0877 43.8568 61.0311 43.6703 61.0311 43.4794C61.0314 43.2236 61.1332 42.9784 61.3141 42.7975C61.4949 42.6167 61.7402 42.5149 61.996 42.5146ZM61.996 35.1224C62.1868 35.1224 62.3733 35.179 62.532 35.285C62.6907 35.391 62.8143 35.5417 62.8874 35.718C62.9604 35.8943 62.9795 36.0883 62.9423 36.2755C62.905 36.4626 62.8131 36.6346 62.6782 36.7695C62.5433 36.9044 62.3714 36.9963 62.1842 37.0336C61.997 37.0708 61.803 37.0517 61.6267 36.9787C61.4504 36.9056 61.2997 36.782 61.1937 36.6233C61.0877 36.4646 61.0311 36.2781 61.0311 36.0873C61.0317 35.8316 61.1335 35.5866 61.3144 35.4059C61.4952 35.2252 61.7403 35.1236 61.996 35.1233V35.1224ZM27.0389 36.0881C27.0389 35.8973 27.0955 35.7108 27.2015 35.5521C27.3076 35.3934 27.4583 35.2698 27.6346 35.1967C27.8109 35.1237 28.0049 35.1046 28.192 35.1418C28.3792 35.1791 28.5511 35.271 28.686 35.4059C28.821 35.5408 28.9129 35.7127 28.9501 35.8999C28.9873 36.0871 28.9682 36.2811 28.8952 36.4574C28.8222 36.6337 28.6985 36.7844 28.5398 36.8904C28.3812 36.9964 28.1946 37.053 28.0038 37.053C27.748 37.0527 27.5028 36.9509 27.3219 36.77C27.141 36.5892 27.0393 36.3439 27.0389 36.0881ZM28.0038 44.4443C27.813 44.4443 27.6264 44.3877 27.4677 44.2817C27.3091 44.1757 27.1854 44.025 27.1124 43.8487C27.0394 43.6724 27.0203 43.4784 27.0575 43.2912C27.0947 43.104 27.1866 42.9321 27.3215 42.7972C27.4565 42.6623 27.6284 42.5704 27.8156 42.5331C28.0027 42.4959 28.1967 42.515 28.373 42.588C28.5493 42.6611 28.7 42.7847 28.806 42.9434C28.912 43.1021 28.9686 43.2886 28.9686 43.4794C28.9683 43.7352 28.8666 43.9805 28.6857 44.1613C28.5048 44.3422 28.2596 44.444 28.0038 44.4443ZM28.0038 53.8297C27.813 53.8297 27.6264 53.7731 27.4677 53.6671C27.3091 53.5611 27.1854 53.4104 27.1124 53.2341C27.0394 53.0578 27.0203 52.8638 27.0575 52.6766C27.0947 52.4895 27.1866 52.3175 27.3215 52.1826C27.4565 52.0477 27.6284 51.9558 27.8156 51.9185C28.0027 51.8813 28.1967 51.9004 28.373 51.9734C28.5493 52.0465 28.7 52.1701 28.806 52.3288C28.912 52.4875 28.9686 52.674 28.9686 52.8648C28.9683 53.1206 28.8666 53.3659 28.6857 53.5467C28.5048 53.7276 28.2596 53.8294 28.0038 53.8297ZM62.9608 52.8648C62.9608 53.0557 62.9042 53.2422 62.7982 53.4009C62.6922 53.5596 62.5415 53.6832 62.3652 53.7562C62.1889 53.8293 61.9949 53.8484 61.8077 53.8112C61.6206 53.7739 61.4487 53.682 61.3137 53.5471C61.1788 53.4122 61.0869 53.2402 61.0497 53.0531C61.0124 52.8659 61.0315 52.6719 61.1046 52.4956C61.1776 52.3193 61.3013 52.1686 61.4599 52.0626C61.6186 51.9566 61.8051 51.9 61.996 51.9C62.2518 51.9003 62.497 52.0021 62.6779 52.1829C62.8587 52.3638 62.9605 52.6091 62.9608 52.8648ZM57.8367 29.9063C58.0276 29.9063 58.2141 29.9629 58.3728 30.0689C58.5314 30.1749 58.6551 30.3256 58.7281 30.5019C58.8012 30.6782 58.8203 30.8722 58.783 31.0594C58.7458 31.2466 58.6539 31.4185 58.519 31.5534C58.3841 31.6883 58.2121 31.7802 58.025 31.8175C57.8378 31.8547 57.6438 31.8356 57.4675 31.7626C57.2912 31.6895 57.1405 31.5659 57.0345 31.4072C56.9285 31.2485 56.8719 31.062 56.8719 30.8712C56.8722 30.6154 56.974 30.3701 57.1548 30.1893C57.3357 30.0084 57.5809 29.9066 57.8367 29.9063ZM31.1982 30.8712C31.1982 30.6803 31.2547 30.4938 31.3608 30.3351C31.4668 30.1765 31.6175 30.0528 31.7938 29.9798C31.9701 29.9067 32.1641 29.8876 32.3512 29.9249C32.5384 29.9621 32.7103 30.054 32.8452 30.1889C32.9802 30.3238 33.0721 30.4958 33.1093 30.6829C33.1465 30.8701 33.1274 31.0641 33.0544 31.2404C32.9814 31.4167 32.8577 31.5674 32.699 31.6734C32.5404 31.7794 32.3538 31.836 32.163 31.836C31.9072 31.8357 31.662 31.7339 31.4811 31.5531C31.3002 31.3722 31.1985 31.127 31.1982 30.8712ZM31.7512 60.0938C31.5604 60.0938 31.3739 60.0372 31.2152 59.9311C31.0565 59.8251 30.9329 59.6744 30.8598 59.4981C30.7868 59.3218 30.7677 59.1278 30.8049 58.9407C30.8422 58.7535 30.9341 58.5816 31.069 58.4467C31.2039 58.3117 31.3758 58.2198 31.563 58.1826C31.7502 58.1454 31.9442 58.1645 32.1205 58.2375C32.2968 58.3105 32.4475 58.4342 32.5535 58.5929C32.6595 58.7515 32.7161 58.9381 32.7161 59.1289C32.7158 59.3847 32.614 59.6299 32.4331 59.8108C32.2523 59.9917 32.007 60.0934 31.7512 60.0938ZM51.5804 55.0537L44.9999 59.5436L38.4193 55.0537C37.096 54.1514 36.0132 52.9394 35.2651 51.5231C34.517 50.1069 34.1262 48.5293 34.1268 46.9276V37.97C35.2311 37.8415 36.2595 37.3438 37.0456 36.5577C37.8317 35.7716 38.3294 34.7432 38.4579 33.6389H51.5418C51.6704 34.7432 52.168 35.7716 52.9541 36.5577C53.7402 37.3438 54.7687 37.8415 55.8729 37.97V46.9276C55.8735 48.5293 55.4828 50.1069 54.7346 51.5231C53.9865 52.9394 52.9037 54.1514 51.5804 55.0537ZM59.2134 59.1289C59.2134 59.3197 59.1568 59.5063 59.0507 59.6649C58.9447 59.8236 58.794 59.9473 58.6177 60.0203C58.4414 60.0933 58.2474 60.1124 58.0603 60.0752C57.8731 60.038 57.7012 59.9461 57.5663 59.8112C57.4313 59.6762 57.3394 59.5043 57.3022 59.3171C57.265 59.13 57.2841 58.936 57.3571 58.7597C57.4301 58.5834 57.5538 58.4327 57.7125 58.3267C57.8711 58.2207 58.0577 58.1641 58.2485 58.1641C58.5043 58.1644 58.7495 58.2661 58.9304 58.447C59.1113 58.6279 59.213 58.8731 59.2134 59.1289Z" fill="black"/>
<path d="M53.9434 39.8181C53.9434 39.7175 53.9143 39.6192 53.8595 39.5349C53.8048 39.4506 53.7268 39.3839 53.6349 39.3431C52.0901 38.6569 50.8549 37.4218 50.1686 35.877C50.1278 35.7852 50.0611 35.7071 49.9768 35.6524C49.8925 35.5976 49.7941 35.5685 49.6936 35.5686H40.3061C40.2056 35.5685 40.1072 35.5976 40.0229 35.6524C39.9386 35.7071 39.872 35.7852 39.8311 35.877C39.145 37.4219 37.9099 38.6571 36.3651 39.3434C36.2733 39.3842 36.1952 39.4509 36.1405 39.5352C36.0858 39.6195 36.0566 39.7178 36.0566 39.8184V46.9276C36.056 48.2154 36.3701 49.4838 36.9716 50.6225C37.5731 51.7612 38.4438 52.7356 39.5078 53.4609L44.7079 57.0092C44.7944 57.0675 44.8963 57.0987 45.0006 57.0987C45.1049 57.0987 45.2068 57.0675 45.2933 57.0092L50.4922 53.4609C51.5559 52.7357 52.4262 51.7616 53.0276 50.6233C53.629 49.485 53.9431 48.2171 53.9428 46.9297L53.9434 39.8181ZM52.9043 46.9276C52.9045 48.0457 52.6316 49.147 52.1092 50.1356C51.5869 51.1242 50.8309 51.9702 49.9071 52.6L45 55.9497L40.0927 52.6C39.1689 51.9701 38.413 51.1241 37.8907 50.1355C37.3684 49.1469 37.0955 48.0457 37.0957 46.9276V40.1476C38.6302 39.3852 39.8734 38.1421 40.6359 36.6077H49.3641C50.1266 38.1421 51.3698 39.3852 52.9043 40.1476V46.9276Z" fill="black"/>
</g>
<defs>
<clipPath id="clip0_126_310">
<rect width="38" height="38" fill="white" transform="translate(26 26)"/>
</clipPath>
</defs>
</svg>
