<svg width="91" height="90" viewBox="0 0 91 90" fill="none" xmlns="http://www.w3.org/2000/svg">
<rect width="91" height="90" rx="20" fill="#E2FFF1"/>
<g clip-path="url(#clip0_126_312)">
<path d="M35.7003 50.1745C36.0738 49.9591 36.2017 49.4809 35.9862 49.1073C35.7705 48.7341 35.2926 48.6059 34.9191 48.8214C34.5455 49.0372 34.4173 49.5154 34.6331 49.8886C34.8486 50.2621 35.3268 50.3903 35.7003 50.1745Z" fill="#008646"/>
<path d="M32.4988 55.5667L36.4331 62.3816C37.2821 63.8537 39.1919 64.3988 40.7022 63.5257C42.1966 62.662 42.7103 60.7525 41.8457 59.2569L39.5019 55.1968L41.5317 54.0249C41.9052 53.8089 42.0334 53.3313 41.8176 52.9577L40.8017 51.1981C40.9228 51.1746 41.7193 51.0183 55.7657 48.2629C57.5021 48.1686 58.5425 46.2695 57.6654 44.7513L55.069 40.2542L56.7282 37.7411C56.8912 37.4939 56.9009 37.1762 56.7529 36.9198L55.1904 34.2135C55.0424 33.9572 54.7613 33.807 54.4668 33.8244L51.4612 34.0048L48.5788 29.0121C48.1613 28.2888 47.4133 27.8509 46.5784 27.8405C46.5683 27.8402 46.5585 27.8402 46.5484 27.8402C45.7416 27.8402 45.0091 28.2419 44.5752 28.9209L34.3695 41.922L27.7347 45.7525C25.1251 47.2586 24.2212 50.6064 25.733 53.2229C27.1142 55.6155 30.0262 56.5567 32.4988 55.5667ZM40.4928 60.0384C40.9244 60.7849 40.6689 61.7401 39.9203 62.1725C39.1693 62.6068 38.2129 62.3401 37.7862 61.6006L33.88 54.834L36.5863 53.2715C41.1072 61.1029 40.4202 59.913 40.4928 60.0384ZM38.7207 53.8434L37.9394 52.4902L39.2926 51.709L40.0738 53.0621L38.7207 53.8434ZM54.0787 35.4129L55.1584 37.283L54.1955 38.7411L52.3346 35.5175L54.0787 35.4129ZM45.8819 29.7775C46.0916 29.4345 46.4242 29.3991 46.5591 29.4027C46.6925 29.4043 47.0248 29.4458 47.2253 29.7931L56.3122 45.5325C56.6083 46.0449 56.2485 46.6891 55.6549 46.7038C55.5484 46.7062 55.4993 46.7254 55.2264 46.7764L45.6143 30.1275C45.816 29.8681 45.842 29.8431 45.8819 29.7775ZM44.5746 31.452L53.6056 47.0944L39.9759 49.7677L35.8316 42.5897L44.5746 31.452ZM27.0862 52.4417C26.7432 51.8481 26.5619 51.1743 26.5619 50.4925C26.5619 49.0991 27.3108 47.8015 28.5159 47.1057L34.6051 43.5901L38.5113 50.3558L32.4222 53.8717C30.5566 54.9484 28.1631 54.3069 27.0862 52.4417Z" fill="#008646"/>
<path d="M33.28 50.6698C33.0642 50.2963 32.5863 50.1681 32.2128 50.3839L30.8596 51.1651C30.4867 51.3806 30.0079 51.2521 29.7924 50.8792C29.5766 50.5057 29.0987 50.3775 28.7252 50.5932C28.3517 50.809 28.2235 51.2869 28.4393 51.6604C29.0823 52.7743 30.5166 53.1671 31.6409 52.5183L32.994 51.737C33.3675 51.5213 33.4957 51.0437 33.28 50.6698Z" fill="#008646"/>
<path d="M63.8388 29.5114L59.4855 31.9339C59.1086 32.1438 58.9728 32.6196 59.1828 32.9965C59.3921 33.3731 59.8676 33.5095 60.2454 33.2992L64.5984 30.8767C64.9756 30.6668 65.1111 30.191 64.9012 29.8141C64.6915 29.4369 64.2157 29.3014 63.8388 29.5114Z" fill="#008646"/>
<path d="M63.3822 37.6028L60.3637 36.7941C59.9469 36.6824 59.5184 36.9296 59.4067 37.3465C59.295 37.7633 59.5425 38.1915 59.9594 38.3032L62.9782 39.1119C63.3975 39.2245 63.8238 38.9734 63.9349 38.5595C64.0466 38.1427 63.7991 37.7142 63.3822 37.6028Z" fill="#008646"/>
<path d="M55.7967 26.673L54.987 29.6918C54.8753 30.1087 55.1225 30.5368 55.5394 30.6488C55.956 30.7602 56.3844 30.5136 56.4964 30.0965L57.3058 27.0777C57.4175 26.6608 57.1703 26.2323 56.7534 26.1206C56.3368 26.0089 55.9084 26.2561 55.7967 26.673Z" fill="#008646"/>
</g>
<defs>
<clipPath id="clip0_126_312">
<rect width="40" height="40" fill="white" transform="translate(25 25)"/>
</clipPath>
</defs>
</svg>
