<svg width="91" height="90" viewBox="0 0 91 90" fill="none" xmlns="http://www.w3.org/2000/svg">
<rect width="91" height="90" rx="20" fill="#FDFBDA"/>
<g clip-path="url(#clip0_126_306)">
<path d="M65.9774 50.2847C65.8728 47.8783 65.4543 45.2104 64.8266 42.6994C64.1988 40.293 63.4141 38.0435 62.4725 36.3172C58.8106 29.8827 54.8348 30.8767 50.0744 32.1322C48.5573 32.4984 46.9356 32.9169 45.2616 33.0738H44.7384C43.0644 32.9169 41.4427 32.4984 39.9257 32.1322C35.1652 30.929 31.1894 29.8827 27.5275 36.3695C26.5859 38.0958 25.7489 40.3453 25.1735 42.7517C24.5457 45.2627 24.1272 47.9306 24.0226 50.337C23.9179 53.005 24.1795 54.9406 24.755 56.3007C25.3304 57.5562 26.1674 58.3409 27.266 58.6548C28.2599 58.9163 29.4108 58.8117 30.614 58.2886C32.6542 57.4516 35.0083 55.6729 37.31 53.5281C38.9317 51.9587 41.9659 51.174 45 51.174C48.0342 51.174 51.0683 51.9587 52.69 53.5281C54.9918 55.6729 57.3458 57.4516 59.386 58.2886C60.5892 58.7594 61.7401 58.9163 62.7341 58.6548C63.7803 58.3409 64.6696 57.6085 65.2451 56.2484C65.8205 54.9406 66.0821 53.005 65.9774 50.2847ZM63.4664 55.516C63.1526 56.2484 62.7341 56.6669 62.2109 56.8238C61.6355 56.9808 60.9031 56.8761 60.0661 56.5623C58.2352 55.8299 56.0903 54.2082 53.9978 52.2203C52.0099 50.2324 48.505 49.2385 45 49.2385C41.4951 49.2385 37.9901 50.2324 35.9499 52.1157C33.8051 54.1036 31.6602 55.7776 29.8816 56.4576C29.0446 56.7715 28.3122 56.9285 27.7368 56.7192C27.2137 56.5623 26.7952 56.1438 26.4813 55.4114C26.0628 54.4174 25.8535 52.7957 25.9581 50.3894C26.0628 48.1399 26.429 45.5766 27.0567 43.1702C27.6322 40.9207 28.3645 38.8282 29.2539 37.2588C32.1311 32.0799 35.4791 32.9169 39.4549 33.9631C41.0765 34.3816 42.7506 34.8001 44.5815 34.9571C44.6338 34.9571 44.6338 34.9571 44.6861 34.9571H45.2616C45.3139 34.9571 45.3139 34.9571 45.3662 34.9571C47.2495 34.8001 48.9235 34.3816 50.5452 33.9631C54.5209 32.9692 57.869 32.0799 60.7462 37.2588C61.6355 38.8282 62.3679 40.8684 62.9433 43.1702C63.5187 45.5766 63.9372 48.0876 64.0419 50.3894C64.1465 52.7957 63.9372 54.4174 63.4664 55.516Z" fill="#B0A600"/>
<path d="M40.1873 40.0837C39.6642 39.6129 39.0364 39.2467 38.3041 39.1944C38.2518 38.5143 37.9379 37.8343 37.4671 37.3634L37.4147 37.3111C36.8393 36.7357 36.1069 36.4218 35.2699 36.4218C34.4329 36.4218 33.6482 36.788 33.1251 37.3111C32.6543 37.7819 32.2881 38.462 32.2358 39.1944C31.5034 39.2467 30.8756 39.5606 30.3525 40.0314L30.3002 40.0837C29.7248 40.6592 29.4109 41.3915 29.4109 42.2285C29.4109 43.0655 29.7771 43.8502 30.3002 44.3734C30.8233 44.8965 31.4511 45.2104 32.2358 45.2627C32.2881 45.9951 32.602 46.6751 33.1251 47.1459C33.7005 47.7214 34.4329 48.0353 35.2699 48.0353C36.1069 48.0353 36.8916 47.6691 37.4147 47.1459C37.8856 46.6228 38.2518 45.9951 38.3041 45.2627C39.0364 45.2104 39.7165 44.8965 40.1873 44.3734C40.7628 43.7979 41.0766 43.0655 41.0766 42.2285C41.0766 41.3915 40.7105 40.6068 40.1873 40.0837ZM38.8795 43.0132C38.6703 43.2225 38.4087 43.3271 38.0948 43.3271H37.3624C36.8393 43.3271 36.3685 43.7456 36.3685 44.321V45.0011C36.3685 45.315 36.2639 45.5766 36.0546 45.7858C35.8454 45.9951 35.5838 46.0997 35.2699 46.0997C34.956 46.0997 34.6945 45.9951 34.4852 45.7858C34.276 45.5766 34.1714 45.315 34.1714 45.0011V44.2687C34.1714 43.7456 33.7529 43.2748 33.1774 43.2748H32.445C32.1312 43.2748 31.8696 43.1702 31.6603 42.9609C31.5034 42.804 31.3465 42.5424 31.3465 42.2285C31.3465 41.9147 31.4511 41.6531 31.6603 41.4438C31.6603 41.4438 31.6603 41.4438 31.7127 41.3915C31.9219 41.2346 32.1835 41.13 32.445 41.13H33.1774C33.7005 41.13 34.1714 40.7115 34.1714 40.136V39.4036C34.1714 39.0898 34.276 38.8282 34.4852 38.619C34.6945 38.4097 34.956 38.3051 35.2699 38.3051C35.5838 38.3051 35.8454 38.4097 36.0546 38.619C36.0546 38.619 36.0546 38.619 36.1069 38.6713C36.2639 38.8805 36.3685 39.1421 36.3685 39.4036V40.136C36.3685 40.6592 36.787 41.13 37.3624 41.13H38.0948C38.4087 41.13 38.6703 41.2346 38.8795 41.4438C39.0888 41.6531 39.1934 41.9147 39.1934 42.2285C39.1934 42.5424 39.0888 42.804 38.8795 43.0132Z" fill="#B0A600"/>
<path d="M54.1024 40.3453C55.1136 40.3453 55.9334 39.5256 55.9334 38.5144C55.9334 37.5032 55.1136 36.6834 54.1024 36.6834C53.0912 36.6834 52.2715 37.5032 52.2715 38.5144C52.2715 39.5256 53.0912 40.3453 54.1024 40.3453Z" fill="#B0A600"/>
<path d="M54.1024 47.7737C55.1136 47.7737 55.9334 46.954 55.9334 45.9428C55.9334 44.9316 55.1136 44.1118 54.1024 44.1118C53.0912 44.1118 52.2715 44.9316 52.2715 45.9428C52.2715 46.954 53.0912 47.7737 54.1024 47.7737Z" fill="#B0A600"/>
<path d="M50.3883 44.0595C51.3995 44.0595 52.2193 43.2397 52.2193 42.2285C52.2193 41.2173 51.3995 40.3976 50.3883 40.3976C49.3771 40.3976 48.5574 41.2173 48.5574 42.2285C48.5574 43.2397 49.3771 44.0595 50.3883 44.0595Z" fill="#B0A600"/>
<path d="M57.8168 44.0595C58.828 44.0595 59.6477 43.2397 59.6477 42.2285C59.6477 41.2173 58.828 40.3976 57.8168 40.3976C56.8056 40.3976 55.9858 41.2173 55.9858 42.2285C55.9858 43.2397 56.8056 44.0595 57.8168 44.0595Z" fill="#B0A600"/>
</g>
<defs>
<clipPath id="clip0_126_306">
<rect width="42" height="42" fill="white" transform="translate(24 24)"/>
</clipPath>
</defs>
</svg>
