<svg width="91" height="90" viewBox="0 0 91 90" fill="none" xmlns="http://www.w3.org/2000/svg">
<rect width="91" height="90" rx="20" fill="#FFE7FB"/>
<g clip-path="url(#clip0_126_308)">
<path d="M61.2667 36.8104C61.2632 33.6456 58.6982 31.0806 55.5334 31.0771H53.3512C52.9803 27.0178 49.5765 23.9104 45.5001 23.9104C41.4237 23.9104 38.0199 27.0178 37.6489 31.0771H35.4667C32.3002 31.0771 29.7334 33.6438 29.7334 36.8104C29.7334 39.977 32.3002 42.5437 35.4667 42.5437H43.3501V41.1104H35.4667C33.0921 41.1104 31.1667 39.1851 31.1667 36.8104C31.1667 34.4357 33.0921 32.5104 35.4667 32.5104H39.0501V31.7937C39.0501 28.2314 41.9377 25.3437 45.5001 25.3437C49.0624 25.3437 51.9501 28.2314 51.9501 31.7937V32.5104H55.5334C57.9081 32.5104 59.8334 34.4357 59.8334 36.8104C59.8334 39.1851 57.9081 41.1104 55.5334 41.1104H47.6501V42.5437H55.5334C58.6982 42.5402 61.2632 39.9752 61.2667 36.8104Z" fill="#910078"/>
<path d="M58.4001 64.7604V52.5771C58.3987 51.3901 57.437 50.4285 56.2501 50.4271H54.8167V48.8618C55.7598 48.5301 56.3488 47.5908 56.2364 46.5974C56.1241 45.6039 55.3399 44.8197 54.3464 44.7074C53.353 44.595 52.4137 45.184 52.082 46.1271H46.2167V37.1071L47.86 38.7504L48.8734 37.737L45.5001 34.3636L42.1267 37.737L43.1401 38.7504L44.7834 37.1071V46.1271H38.9181C38.5864 45.184 37.6472 44.5947 36.6537 44.7074C35.6602 44.8197 34.876 45.6036 34.7637 46.597C34.6514 47.5905 35.2403 48.5301 36.1834 48.8615V51.1437H31.8834C30.6964 51.1451 29.7348 52.1067 29.7334 53.2937V61.8937C29.7348 63.0807 30.6964 64.0423 31.8834 64.0437H36.1834V65.4771H34.0334V66.9104H39.7667V65.4771H37.6167V64.0437H41.9167C43.1037 64.0423 44.0653 63.0807 44.0667 61.8937V53.2937C44.0653 52.1067 43.1037 51.1451 41.9167 51.1437H37.6167V48.8618C38.2239 48.6452 38.7015 48.1675 38.9181 47.5604H52.082C52.2986 48.1675 52.7763 48.6452 53.3834 48.8615V50.4271H49.0834C47.8964 50.4285 46.9348 51.3901 46.9334 52.5771V64.7604C46.9348 65.9474 47.8964 66.909 49.0834 66.9104H56.2501C57.437 66.909 58.3987 65.9474 58.4001 64.7604ZM42.6334 61.8937C42.633 62.2895 42.3125 62.61 41.9167 62.6104H31.8834C31.4876 62.61 31.1671 62.2895 31.1667 61.8937V60.4604H42.6334V61.8937ZM41.9167 52.5771C42.3125 52.5774 42.633 52.898 42.6334 53.2937V59.0271H31.1667V53.2937C31.1671 52.898 31.4876 52.5774 31.8834 52.5771H41.9167ZM36.9001 47.5604C36.5043 47.5604 36.1834 47.2395 36.1834 46.8437C36.1834 46.448 36.5043 46.1271 36.9001 46.1271C37.2958 46.1271 37.6167 46.448 37.6167 46.8437C37.6164 47.2395 37.2958 47.56 36.9001 47.5604ZM54.1001 46.1271C54.4958 46.1271 54.8167 46.448 54.8167 46.8437C54.8167 47.2395 54.4958 47.5604 54.1001 47.5604C53.7043 47.5604 53.3834 47.2395 53.3834 46.8437C53.3838 46.448 53.7043 46.1274 54.1001 46.1271ZM48.3667 52.5771C48.3671 52.1813 48.6876 51.8607 49.0834 51.8604H56.2501C56.6458 51.8607 56.9664 52.1813 56.9667 52.5771V61.8937H48.3667V52.5771ZM48.3667 64.7604V63.3271H56.9667V64.7604C56.9664 65.1562 56.6458 65.4767 56.2501 65.4771H49.0834C48.6876 65.4767 48.3671 65.1562 48.3667 64.7604Z" fill="#910078"/>
</g>
<defs>
<clipPath id="clip0_126_308">
<rect width="43" height="43" fill="white" transform="translate(24 24)"/>
</clipPath>
</defs>
</svg>
