<svg width="91" height="90" viewBox="0 0 91 90" fill="none" xmlns="http://www.w3.org/2000/svg">
<rect width="91" height="90" rx="20" fill="#F1E8FF"/>
<path d="M53.8281 25.6406H37.1719C36.4925 25.6415 35.8413 25.9118 35.3609 26.3921C34.8805 26.8725 34.6103 27.5238 34.6094 28.2031V62.7969C34.6103 63.4762 34.8805 64.1275 35.3609 64.6079C35.8413 65.0882 36.4925 65.3585 37.1719 65.3594H53.8281C54.5075 65.3585 55.1587 65.0882 55.6391 64.6079C56.1195 64.1275 56.3897 63.4762 56.3906 62.7969V28.2031C56.3897 27.5238 56.1195 26.8725 55.6391 26.3921C55.1587 25.9118 54.5075 25.6415 53.8281 25.6406ZM48.4981 26.9219L48.1378 28.2031H42.7974L42.4771 26.9219H48.4981ZM55.1094 62.7969C55.1089 63.1365 54.9738 63.4622 54.7336 63.7024C54.4934 63.9426 54.1678 64.0777 53.8281 64.0781H37.1719C36.8322 64.0777 36.5066 63.9426 36.2664 63.7024C36.0262 63.4622 35.8911 63.1365 35.8906 62.7969V28.2031C35.8911 27.8635 36.0262 27.5378 36.2664 27.2976C36.5066 27.0575 36.8322 26.9223 37.1719 26.9219H41.1558L41.6755 28.9991C41.7101 29.1377 41.7901 29.2607 41.9027 29.3487C42.0153 29.4366 42.154 29.4844 42.2969 29.4844H48.623C48.7627 29.4844 48.8984 29.4388 49.0097 29.3545C49.1211 29.2702 49.2018 29.1519 49.2396 29.0175L49.829 26.9219H53.8281C54.1678 26.9223 54.4934 27.0575 54.7336 27.2976C54.9738 27.5378 55.1089 27.8635 55.1094 28.2031V62.7969Z" fill="#6E00FA"/>
<path d="M42.2969 61.5156H37.8125C37.6426 61.5156 37.4796 61.5831 37.3595 61.7033C37.2394 61.8234 37.1719 61.9863 37.1719 62.1562C37.1719 62.3262 37.2394 62.4891 37.3595 62.6092C37.4796 62.7294 37.6426 62.7969 37.8125 62.7969H42.2969C42.4668 62.7969 42.6297 62.7294 42.7499 62.6092C42.87 62.4891 42.9375 62.3262 42.9375 62.1562C42.9375 61.9863 42.87 61.8234 42.7499 61.7033C42.6297 61.5831 42.4668 61.5156 42.2969 61.5156Z" fill="#6E00FA"/>
<path d="M44.8594 61.5156H44.2188C44.0488 61.5156 43.8859 61.5831 43.7658 61.7033C43.6456 61.8234 43.5781 61.9863 43.5781 62.1562C43.5781 62.3262 43.6456 62.4891 43.7658 62.6092C43.8859 62.7294 44.0488 62.7969 44.2188 62.7969H44.8594C45.0293 62.7969 45.1922 62.7294 45.3124 62.6092C45.4325 62.4891 45.5 62.3262 45.5 62.1562C45.5 61.9863 45.4325 61.8234 45.3124 61.7033C45.1922 61.5831 45.0293 61.5156 44.8594 61.5156Z" fill="#6E00FA"/>
<path d="M47.7515 41.7475C47.6794 41.7042 47.5994 41.6756 47.5162 41.6632C47.433 41.6508 47.3481 41.6549 47.2665 41.6753C47.1849 41.6958 47.1081 41.732 47.0405 41.7821C46.9729 41.8322 46.9158 41.8951 46.8726 41.9673L43.0288 48.3735C42.9414 48.5192 42.9154 48.6937 42.9566 48.8585C42.9978 49.0233 43.1028 49.165 43.2485 49.2524C43.3942 49.3399 43.5687 49.3658 43.7335 49.3246C43.8983 49.2834 44.0401 49.1784 44.1275 49.0327L47.9712 42.6265C48.0145 42.5543 48.0432 42.4744 48.0555 42.3911C48.0679 42.3079 48.0638 42.2231 48.0434 42.1415C48.023 42.0599 47.9867 41.9831 47.9366 41.9155C47.8865 41.8479 47.8236 41.7908 47.7515 41.7475Z" fill="#6E00FA"/>
<path d="M49.8441 41.8965C49.7915 41.8308 49.7265 41.7761 49.6528 41.7355C49.5791 41.695 49.4981 41.6693 49.4145 41.66C49.2456 41.6413 49.0762 41.6905 48.9435 41.7966C48.8108 41.9028 48.7258 42.0574 48.707 42.2263C48.6883 42.3952 48.7374 42.5646 48.8436 42.6973L51.0858 45.5L48.8436 48.3027C48.7374 48.4354 48.6883 48.6048 48.707 48.7737C48.7258 48.9427 48.8108 49.0972 48.9435 49.2034C49.0762 49.3096 49.2456 49.3587 49.4145 49.34C49.5834 49.3213 49.7379 49.2362 49.8441 49.1035L52.4066 45.9004C52.4976 45.7868 52.5472 45.6456 52.5472 45.5C52.5472 45.3545 52.4976 45.2132 52.4066 45.0996L49.8441 41.8965Z" fill="#6E00FA"/>
<path d="M41.1559 49.1035C41.2621 49.2362 41.4167 49.3212 41.5856 49.34C41.7545 49.3587 41.9239 49.3096 42.0566 49.2034C42.1892 49.0972 42.2743 48.9426 42.293 48.7737C42.3117 48.6048 42.2626 48.4354 42.1564 48.3027L39.9142 45.5L42.1564 42.6973C42.209 42.6316 42.2481 42.5562 42.2716 42.4753C42.295 42.3945 42.3023 42.3099 42.293 42.2263C42.2837 42.1426 42.2581 42.0616 42.2175 41.9879C42.1769 41.9142 42.1222 41.8492 42.0566 41.7966C41.9909 41.744 41.9155 41.7049 41.8346 41.6815C41.7538 41.658 41.6692 41.6507 41.5856 41.66C41.5019 41.6693 41.4209 41.6949 41.3472 41.7355C41.2735 41.7761 41.2085 41.8308 41.1559 41.8965L38.5934 45.0996C38.5024 45.2132 38.4529 45.3544 38.4529 45.5C38.4529 45.6455 38.5024 45.7868 38.5934 45.9004L41.1559 49.1035Z" fill="#6E00FA"/>
</svg>
