<svg width="91" height="90" viewBox="0 0 91 90" fill="none" xmlns="http://www.w3.org/2000/svg">
<rect width="91" height="90" rx="20" fill="#E2F3FF"/>
<g clip-path="url(#clip0_126_307)">
<path d="M46.5138 43.4871C46.2007 43.174 45.6938 43.174 45.3807 43.4871C45.0684 43.7994 45.0684 44.3063 45.3807 44.6194C45.6938 44.9317 46.2007 44.9317 46.5138 44.6194C46.8261 44.3063 46.8261 43.7994 46.5138 43.4871Z" fill="#0073C6"/>
<path d="M56.7056 33.2947C55.1409 31.73 52.6078 31.7299 51.043 33.2947C49.4824 34.8553 49.4823 37.3954 51.0433 38.9573C52.6045 40.5175 55.1446 40.5182 56.7056 38.9571C58.2702 37.3926 58.2705 34.8595 56.7056 33.2947ZM55.5731 37.8246C54.6368 38.761 53.1126 38.761 52.1757 37.8248C51.2392 36.8877 51.2391 35.3635 52.1756 34.4271C53.1143 33.4884 54.6342 33.4882 55.5731 34.4271C56.5119 35.3658 56.512 36.8858 55.5731 37.8246Z" fill="#0073C6"/>
<path d="M65.7653 24.2345C65.6081 24.0773 65.3935 23.9921 65.1704 24.0005C64.9893 24.007 60.6783 24.1803 55.5537 25.9916C51.4473 27.4415 48.0245 29.5173 45.3804 32.1615C44.7879 32.754 44.2114 33.3823 43.6597 34.035C41.0453 32.4961 38.9503 32.9786 37.6259 33.6874C34.5765 35.3194 32.689 39.7506 32.689 42.9201C32.6892 43.2439 32.8844 43.5359 33.1835 43.6598C33.2826 43.7009 33.3867 43.7208 33.4898 43.7208C33.6983 43.7208 33.903 43.6394 34.0562 43.4863C35.6644 41.8781 37.648 41.9787 38.296 42.0639L38.5765 42.3443C38.0246 43.6576 37.58 44.9635 37.2539 46.2336C37.1362 46.6932 37.1759 47.1796 37.3509 47.6246C36.5799 47.9799 35.836 48.5016 35.1884 49.1492C33.1271 51.2106 32.7085 56.2342 32.6917 56.4471C32.6733 56.6807 32.758 56.9106 32.9237 57.0763C33.0745 57.227 33.2784 57.3109 33.4898 57.3109C33.5108 57.3109 33.5319 57.3101 33.5529 57.3084C33.7658 57.2916 38.7895 56.8731 40.8508 54.8118C41.4983 54.1644 42.0199 53.4206 42.3752 52.6498C42.8462 52.835 43.331 52.8578 43.767 52.7461C45.0365 52.4201 46.3423 51.9757 47.6557 51.4237L47.9361 51.7041C48.0213 52.3522 48.1218 54.3358 46.5137 55.9439C46.2848 56.1729 46.2162 56.5173 46.3402 56.8165C46.4641 57.1157 46.756 57.3108 47.0799 57.3108C50.2494 57.3108 54.6805 55.4233 56.3125 52.3738C57.0213 51.0496 57.5038 48.9546 55.9649 46.3401C56.6173 45.7887 57.2457 45.2121 57.8384 44.6194C60.4826 41.9752 62.5584 38.5524 64.0083 34.4464C65.8196 29.3215 65.9928 25.0105 65.9993 24.8295C66.0073 24.6073 65.9225 24.3918 65.7653 24.2345ZM34.4793 41.1977C34.9768 38.7903 36.4216 36.1486 38.3819 35.0994C39.6919 34.3984 41.1238 34.4671 42.6463 35.3005C41.3492 37.0063 40.2217 38.8441 39.2818 40.7848C39.2699 40.7774 39.1257 40.5962 38.8579 40.5358C38.7478 40.5109 36.629 40.0552 34.4793 41.1977ZM39.7184 53.6792C38.6173 54.7803 36.0344 55.361 34.4018 55.5982C34.639 53.9655 35.2198 51.3827 36.3208 50.2817C36.9374 49.6651 37.6524 49.1976 38.371 48.9343L41.0658 51.6291C40.8025 52.3477 40.3351 53.0626 39.7184 53.6792ZM43.3691 51.1947C43.1374 51.254 42.869 51.1669 42.6694 50.9676C41.6334 49.9317 41.2282 49.5264 41.101 49.3993C40.8678 49.1661 40.296 48.5943 39.0329 47.3311C38.8332 47.131 38.7461 46.8627 38.8052 46.6313C39.0617 45.6325 39.3972 44.6076 39.8051 43.5729L46.4271 50.195C45.3923 50.603 44.3676 50.9383 43.3691 51.1947ZM54.9007 51.6181C53.8515 53.5784 51.2099 55.0233 48.8026 55.5206C49.5701 54.0763 49.7393 52.2376 49.4589 51.1227C49.3938 50.8637 49.2248 50.7335 49.2154 50.7182C51.1559 49.7783 52.9936 48.6508 54.6996 47.3537C55.533 48.8763 55.6016 50.3084 54.9007 51.6181ZM56.7061 43.4869C55.9845 44.2084 55.2075 44.9055 54.3967 45.5587C52.4474 47.1282 50.302 48.4577 48.013 49.516L40.4841 41.9872C41.5424 39.6981 42.8718 37.5527 44.4412 35.6036C45.095 34.7922 45.792 34.0151 46.5132 33.294C48.8855 30.9216 51.9472 29.0335 55.6158 27.6744L62.3257 34.3843C60.9667 38.0528 59.0787 41.1145 56.7061 43.4869ZM62.9018 32.6954L57.3047 27.0982C60.3541 26.1511 63.007 25.7964 64.3312 25.6689C64.2037 26.9933 63.8489 29.6462 62.9018 32.6954Z" fill="#0073C6"/>
<path d="M44.2485 57.0761C43.9356 56.7634 43.4286 56.7636 43.116 57.0763L40.8514 59.3417C40.5387 59.6545 40.5388 60.1615 40.8515 60.4742C41.1644 60.7868 41.6714 60.7868 41.9841 60.474L44.2487 58.2086C44.5613 57.8958 44.5612 57.3887 44.2485 57.0761Z" fill="#0073C6"/>
<path d="M32.924 45.7516C32.6114 45.4389 32.1044 45.4389 31.7916 45.7515L29.5262 48.0161C29.2134 48.3287 29.2133 48.8358 29.5259 49.1485C29.8385 49.4612 30.3454 49.4615 30.6584 49.1487L32.9238 46.8841C33.2366 46.5715 33.2366 46.0644 32.924 45.7516Z" fill="#0073C6"/>
<path d="M38.5862 58.2093C38.2737 57.8966 37.7665 57.8966 37.4538 58.2093L32.0293 63.6329C31.7165 63.9456 31.7165 64.4527 32.0292 64.7654C32.3417 65.0781 32.8489 65.0783 33.1617 64.7655L38.5861 59.3418C38.8989 59.0291 38.8989 58.522 38.5862 58.2093Z" fill="#0073C6"/>
<path d="M32.18 58.2093C31.8673 57.8966 31.3602 57.8966 31.0475 58.2093L25.623 63.6329C25.3102 63.9456 25.3102 64.4527 25.6229 64.7654C25.9355 65.0781 26.4426 65.0783 26.7554 64.7655L32.1799 59.3418C32.4927 59.0291 32.4927 58.522 32.18 58.2093Z" fill="#0073C6"/>
<path d="M31.7907 51.4137C31.478 51.1011 30.9709 51.1011 30.6582 51.4138L25.2345 56.8383C24.9218 57.1511 24.9218 57.658 25.2346 57.9708C25.5473 58.2835 26.0544 58.2835 26.3671 57.9707L31.7907 52.5463C32.1034 52.2335 32.1034 51.7265 31.7907 51.4137Z" fill="#0073C6"/>
<path d="M49.911 40.0892C49.5982 39.7765 49.0913 39.7765 48.7785 40.0892L47.6461 41.2215C47.3334 41.5342 47.3334 42.0413 47.6461 42.354C47.9589 42.6668 48.4659 42.6668 48.7787 42.354L49.911 41.2217C50.2237 40.909 50.2237 40.402 49.911 40.0892Z" fill="#0073C6"/>
</g>
<defs>
<clipPath id="clip0_126_307">
<rect width="41" height="41" fill="white" transform="translate(25 24)"/>
</clipPath>
</defs>
</svg>
