<svg width="91" height="90" viewBox="0 0 91 90" fill="none" xmlns="http://www.w3.org/2000/svg">
<rect width="91" height="90" rx="20" fill="#FFF2F2"/>
<g clip-path="url(#clip0_120_306)">
<path d="M45.5 25C34.1956 25 25 34.1965 25 45.5C25 56.8035 34.1956 66 45.5 66C56.8044 66 66 56.8035 66 45.5C66 34.1965 56.8044 25 45.5 25ZM45.5 64.2917C35.1382 64.2917 26.7083 55.8618 26.7083 45.5C26.7083 35.1382 35.1382 26.7083 45.5 26.7083C55.8618 26.7083 64.2917 35.1382 64.2917 45.5C64.2917 55.8618 55.8618 64.2917 45.5 64.2917Z" fill="#FF4E4E"/>
<path d="M41.2292 33.5416H36.1042C34.6912 33.5416 33.5417 34.6911 33.5417 36.1041V41.2291C33.5417 42.6422 34.6912 43.7916 36.1042 43.7916H41.2292C42.6423 43.7916 43.7917 42.6422 43.7917 41.2291V36.1041C43.7917 34.6911 42.6423 33.5416 41.2292 33.5416ZM42.0834 41.2291C42.0834 41.7004 41.6996 42.0833 41.2292 42.0833H36.1042C35.6337 42.0833 35.25 41.7005 35.25 41.2291V36.1041C35.25 35.6329 35.6337 35.2499 36.1042 35.2499H41.2292C41.6996 35.2499 42.0834 35.6328 42.0834 36.1041V41.2291Z" fill="#FF4E4E"/>
<path d="M54.8958 33.5416H49.7708C48.3577 33.5416 47.2083 34.6911 47.2083 36.1041V41.2291C47.2083 42.6422 48.3577 43.7916 49.7708 43.7916H54.8958C56.3088 43.7916 57.4583 42.6422 57.4583 41.2291V36.1041C57.4583 34.6911 56.3088 33.5416 54.8958 33.5416ZM55.7499 41.2291C55.7499 41.7004 55.3662 42.0833 54.8958 42.0833H49.7708C49.3003 42.0833 48.9166 41.7005 48.9166 41.2291V36.1041C48.9166 35.6329 49.3003 35.2499 49.7708 35.2499H54.8958C55.3662 35.2499 55.7499 35.6328 55.7499 36.1041V41.2291Z" fill="#FF4E4E"/>
<path d="M41.2292 47.2083H36.1042C34.6912 47.2083 33.5417 48.3578 33.5417 49.7708V54.8958C33.5417 56.3089 34.6912 57.4583 36.1042 57.4583H41.2292C42.6423 57.4583 43.7917 56.3089 43.7917 54.8958V49.7708C43.7917 48.3578 42.6423 47.2083 41.2292 47.2083ZM42.0834 54.8958C42.0834 55.3671 41.6996 55.75 41.2292 55.75H36.1042C35.6337 55.75 35.25 55.3672 35.25 54.8958V49.7708C35.25 49.2996 35.6337 48.9166 36.1042 48.9166H41.2292C41.6996 48.9166 42.0834 49.2995 42.0834 49.7708V54.8958Z" fill="#FF4E4E"/>
<path d="M54.8958 47.2083H49.7708C48.3577 47.2083 47.2083 48.3578 47.2083 49.7708V54.8958C47.2083 56.3089 48.3577 57.4583 49.7708 57.4583H54.8958C56.3088 57.4583 57.4583 56.3089 57.4583 54.8958V49.7708C57.4583 48.3578 56.3088 47.2083 54.8958 47.2083ZM55.7499 54.8958C55.7499 55.3671 55.3662 55.75 54.8958 55.75H49.7708C49.3003 55.75 48.9166 55.3672 48.9166 54.8958V49.7708C48.9166 49.2996 49.3003 48.9166 49.7708 48.9166H54.8958C55.3662 48.9166 55.7499 49.2995 55.7499 49.7708V54.8958Z" fill="#FF4E4E"/>
</g>
<defs>
<clipPath id="clip0_120_306">
<rect width="41" height="41" fill="white" transform="translate(25 25)"/>
</clipPath>
</defs>
</svg>
